<mxfile host="Electron" modified="2023-09-27T00:04:25.604Z" agent="Mozilla/5.0 (Macintosh; Intel Mac OS X 10_15_7) AppleWebKit/537.36 (KHTML, like Gecko) draw.io/21.7.5 Chrome/114.0.5735.289 Electron/25.8.1 Safari/537.36" etag="U64p-GPYd8RHa8eUdYB7" version="21.7.5" type="device">
  <diagram name="Page-1" id="e2LqcIvLlDEIMGghtBaB">
    <mxGraphModel dx="1010" dy="732" grid="1" gridSize="10" guides="1" tooltips="1" connect="1" arrows="1" fold="1" page="1" pageScale="1" pageWidth="827" pageHeight="1169" math="0" shadow="0">
      <root>
        <mxCell id="0" />
        <mxCell id="1" parent="0" />
        <mxCell id="TncjpCpAyy_2TeYXYjgw-1" value="Application&lt;br&gt;Server" style="rounded=1;whiteSpace=wrap;html=1;fillColor=#0050ef;strokeColor=#001DBC;glass=0;sketch=1;curveFitting=1;jiggle=2;fontColor=#000000;fontSize=17;" vertex="1" parent="1">
          <mxGeometry x="350" y="60" width="120" height="710" as="geometry" />
        </mxCell>
        <mxCell id="TncjpCpAyy_2TeYXYjgw-2" value="" style="image;points=[];aspect=fixed;html=1;align=center;shadow=0;dashed=0;image=img/lib/allied_telesis/buildings/Secure_Building.svg;" vertex="1" parent="1">
          <mxGeometry x="366.13" y="290" width="87.74" height="60" as="geometry" />
        </mxCell>
        <mxCell id="TncjpCpAyy_2TeYXYjgw-9" style="edgeStyle=orthogonalEdgeStyle;rounded=0;orthogonalLoop=1;jettySize=auto;html=1;fillColor=#1ba1e2;strokeColor=#006EAF;strokeWidth=2;dashed=1;" edge="1" parent="1" source="TncjpCpAyy_2TeYXYjgw-3" target="TncjpCpAyy_2TeYXYjgw-4">
          <mxGeometry relative="1" as="geometry">
            <Array as="points">
              <mxPoint x="41" y="110" />
            </Array>
          </mxGeometry>
        </mxCell>
        <mxCell id="TncjpCpAyy_2TeYXYjgw-10" style="edgeStyle=orthogonalEdgeStyle;rounded=0;orthogonalLoop=1;jettySize=auto;html=1;dashed=1;fillColor=#1ba1e2;strokeColor=#006EAF;strokeWidth=2;exitX=1;exitY=0;exitDx=0;exitDy=0;" edge="1" parent="1" source="TncjpCpAyy_2TeYXYjgw-3">
          <mxGeometry relative="1" as="geometry">
            <mxPoint x="220" y="190" as="targetPoint" />
            <Array as="points">
              <mxPoint x="62" y="220" />
              <mxPoint x="190" y="220" />
              <mxPoint x="190" y="190" />
            </Array>
          </mxGeometry>
        </mxCell>
        <mxCell id="TncjpCpAyy_2TeYXYjgw-11" style="edgeStyle=orthogonalEdgeStyle;rounded=0;orthogonalLoop=1;jettySize=auto;html=1;entryX=0;entryY=0.5;entryDx=0;entryDy=0;strokeWidth=2;fillColor=#1ba1e2;strokeColor=#006EAF;dashed=1;" edge="1" parent="1" source="TncjpCpAyy_2TeYXYjgw-3" target="TncjpCpAyy_2TeYXYjgw-7">
          <mxGeometry relative="1" as="geometry">
            <Array as="points">
              <mxPoint x="141" y="280" />
              <mxPoint x="141" y="306" />
            </Array>
          </mxGeometry>
        </mxCell>
        <mxCell id="TncjpCpAyy_2TeYXYjgw-12" style="edgeStyle=orthogonalEdgeStyle;rounded=0;orthogonalLoop=1;jettySize=auto;html=1;strokeWidth=2;dashed=1;fillColor=#1ba1e2;strokeColor=#006EAF;" edge="1" parent="1" source="TncjpCpAyy_2TeYXYjgw-3" target="TncjpCpAyy_2TeYXYjgw-8">
          <mxGeometry relative="1" as="geometry">
            <Array as="points">
              <mxPoint x="41" y="402" />
            </Array>
          </mxGeometry>
        </mxCell>
        <mxCell id="TncjpCpAyy_2TeYXYjgw-3" value="Information&lt;br&gt;Systems" style="sketch=0;html=1;verticalAlign=top;labelPosition=center;verticalLabelPosition=bottom;align=center;spacingTop=-6;fontSize=11;fontStyle=1;fontColor=#999999;shape=image;aspect=fixed;imageAspect=0;image=data:image/svg+xml,PHN2ZyB4bWxucz0iaHR0cDovL3d3dy53My5vcmcvMjAwMC9zdmciIHhtbG5zOnY9Imh0dHBzOi8vdmVjdGEuaW8vbmFubyIgd2lkdGg9IjM3NS41MDQwMTg5MTYxMTE2IiBoZWlnaHQ9IjM3Ni40MTEwMTA4NDIxNTg5MyIgdmlld0JveD0iMCAwIDk5LjM1MjAwNTAwNDg4MjgxIDk5LjU5MjAwMjg2ODY1MjM0Ij4mI3hhOzxzdHlsZSB0eXBlPSJ0ZXh0L2NzcyI+JiN4YTsJLnN0MHtmaWxsOiM2NjlkZjY7fSYjeGE7CS5zdDF7ZmlsbDojYWVjYmZhO30mI3hhOzwvc3R5bGU+JiN4YTsJPHBhdGggY2xhc3M9InN0MCIgZD0iTTcwLjc2MyA0OS43ODZhMzAuOTkgMzAuOTkgMCAwIDAtNC40OTkuNDQydjI3LjA3OGgxMXYtMjYuOTdsLTIuNjg2LS4zOTFjLTEuMjc5LS4xMzEtMi41NC0uMTg2LTMuODE1LS4xNTl6bS0xNS41ODcgMy43NjZsLTQuNDcxIDEuODcxLS4wMTYuMDA2LS4wMTYuMDA4LTYuNDk4IDIuNTIydjMwLjg4NGgxMXptMzMuMTc2LjEwNHY0NS45MzZoMTFWNTguMTk4Yy00LjEzOC0xLjc5OC03Ljc4My0zLjMyNS0xMS00LjU0MXpNMCA1My43Njh2MjMuNTM5aDExVjU4LjAxMmMtMy40MzYtMS4xMjYtNy4wNTItMi41NTItMTEtNC4yNDR6bTMzLjA4OCA2Ljg2Yy0zLjcwNS40NzItNy4zMjUuNDc4LTExIC4wMDd2MzguOTU3aDExeiIvPiYjeGE7CTxwYXRoIGNsYXNzPSJzdDEiIGQ9Ik0wIDB2NDEuNzM0YzQuMTA1IDEuODE5IDcuNzQgMy4zNSAxMSA0LjU3MlYwem02Ni4yNjQgMHYzOS4xNTRjMy4xNzgtLjQxMiA2LjI4Mi0uNDczIDkuNDM0LS4xNS41MjMuMDUzIDEuMDQ0LjExOSAxLjU2Ni4xOTFWMHpNNDQuMTc2IDExLjUzOHYzNC42OTRsMi4xMzctLjg5NWMzLjE0LTEuMzc5IDYuMDY5LTIuNTM5IDguODYzLTMuNDl2LTMwLjMxek0yMi4wODggMjIuMjg1djI3LjIzYy4wMTEuMDAyLjAyMi4wMDQuMDMzLjAwNiAzLjc3NC42NCA3LjIxNS43MDcgMTAuOTY3LjA4VjIyLjI4NXptNjYuMjY0IDB2MTkuNjQxYzMuMzg4IDEuMTQ0IDcuMDE1IDIuNTk3IDExIDQuMjlWMjIuMjg1eiIvPiYjeGE7PC9zdmc+;" vertex="1" parent="1">
          <mxGeometry x="20" y="240" width="42" height="42" as="geometry" />
        </mxCell>
        <mxCell id="TncjpCpAyy_2TeYXYjgw-18" style="edgeStyle=orthogonalEdgeStyle;rounded=0;orthogonalLoop=1;jettySize=auto;html=1;entryX=0;entryY=0.065;entryDx=0;entryDy=0;entryPerimeter=0;fillColor=#1ba1e2;strokeColor=#006EAF;strokeWidth=2;" edge="1" parent="1" source="TncjpCpAyy_2TeYXYjgw-4" target="TncjpCpAyy_2TeYXYjgw-1">
          <mxGeometry relative="1" as="geometry" />
        </mxCell>
        <mxCell id="TncjpCpAyy_2TeYXYjgw-4" value="Restful&lt;br&gt;Message Protocol" style="sketch=0;pointerEvents=1;shadow=0;dashed=0;html=1;strokeColor=none;fillColor=#DF8C42;labelPosition=center;verticalLabelPosition=bottom;verticalAlign=top;align=center;outlineConnect=0;shape=mxgraph.veeam2.restful_api;" vertex="1" parent="1">
          <mxGeometry x="220" y="90" width="34" height="34" as="geometry" />
        </mxCell>
        <mxCell id="TncjpCpAyy_2TeYXYjgw-19" style="edgeStyle=orthogonalEdgeStyle;rounded=0;orthogonalLoop=1;jettySize=auto;html=1;entryX=0.008;entryY=0.192;entryDx=0;entryDy=0;entryPerimeter=0;strokeWidth=2;fillColor=#1ba1e2;strokeColor=#006EAF;" edge="1" parent="1" target="TncjpCpAyy_2TeYXYjgw-1">
          <mxGeometry relative="1" as="geometry">
            <mxPoint x="250" y="196" as="sourcePoint" />
          </mxGeometry>
        </mxCell>
        <mxCell id="TncjpCpAyy_2TeYXYjgw-6" value="Soap &lt;br&gt;Message Protocol" style="shape=image;html=1;verticalLabelPosition=bottom;verticalAlign=top;imageAspect=1;image=data:image/png,iVBORw0KGgoAAAANSUhEUgAAAXoAAADWCAYAAADfCUmxAAAACXBIWXMAAAsSAAALEgHS3X78AAAgAElEQVR4nO2dC5xddXXvf///f+99zpn3JDN5ExLyICG8IQZFEBHlJT7wgdpW5Yqtbb3U2ttWr7aXqu29rb22t/a22od6lWpVtPoRURAEBXkIKiVAEiA8EpKQdzKvc87e+///389ae89khswwyWRmMrNnffUwmdc5e59z5rfXf/3X+i3lvYcgCIJQXLS8toIgCMVGhF4QBKHgiNALgiAUHBF6QRCEgiNCLwiCUHBE6AVBEAqOCL0gCELBEaEXBEEoOCL0giAIBUeEXhAEoeCI0AuCIBQcEXpBEISCI0IvCIJQcEToBUEQCo4IvSAIQsERoRcEQSg4IvSCIAgFR4ReEASh4IjQC4IgFBwRekEQhIIjQi8IglBwROgFQRAKTiAv8NShcsOGiwDcOdOfB6EYVG9YreSlnBpIRC8IglBwROgFQRAKjgi9IAhCwRGhFwRBKDgi9IIgCAVHhF4QBKHgiNALgiAUHBF6QRCEgiNCLwiCUHBE6AVBEAqOCL0gCELBEaEXBEEoOCL0giAIBUeEXhAEoeCI0AuCIBQcEXpBEISCI0IvCIJQcEToBUEQCo4IvSAIQsGRmbFC8fGA8oefpZcwR5ghiNALxcd7DKPzAGR2tTAzEKEXCo/SelhJdyPIvyAUDRF6YRqisihd6Twt46G0h/fZLdAG85tCnNgeYH6TwuxKgMaSQTlU0BpwTsE5oDsB9lVT7Out44Vujy37azhQc3DeAUEIOLpfA+8s3z/8oMuFLAaEaYQIvTDtUCy8AazXUC7BibPKePWSEtYtLmP13EYsb9NoawxIp6GUhfIKii4KjlI4lkJ8VmrFVwkDCw9lE8Q6wpb9dTy6o45f0e35Ku7d0osqDELvkPL1xUMpUXlheiFCL0w9BmVUHL9JHayiyDqFUQGMCXDh0ghXLCvhNStnYfnsEgs6ReIk6DovJjMsyAH6dVkZUmrD/+7P2isuPfNwJkTFW6ycFWFFewlXn0IrBoe+2OH2zXXc9mQvbn/yILZ2uewiwbu7FhaGLxmKVgFyARCmKCL0whTkkGAGSGG9gXYWJ3WUcc0pzXjv2ibMb4lYzlMVIMgF3RyJzvaL/pDci8kuDSrP5Q/8R6Mp8njT6hBXrWpCamfhtqf78IUHD+DWJ2qAiRCmMf9oqkIoviwJwtRDhF6Y0iSqjAZj8fdXzsabzuxESVsop1icnfcwnIqZuLdxf5pGW4vIGFyxsgWvXd6Ee57pxu9/dy82HwyR6hBl1JBK4l6YokglsTAlUFkVJENpEMcpGI9r1xisv34xrjmrAw3a8RtWacUCbxSlaiYpVjGa00KU+CkphYtPasEDH1qGL7+1BctaUiReQ3vL5+GkmEeYYkhEL0wJrFOItEOa59AvW1bGxy6ajbMWVjhH75WCVoPiEjXkw4SjB/LvaiAV3wjg6jVzcenKDvztPXvx2Z/3orueIkKCFEbeWMKUQSJ6YUoQKM8bmyc2pfjOe+bh2+/oxFkLywgOJc2nJF4rNEYeH3vNbDz2e4vxvrMbeU9BEKYSEtELxw1K1Wjl4byC0yXMr6T44QdWYHEDso1O77hWnipkpmpEEjgLp0O+FHVUgL95/Vwsbdb42F1d0LR/QPX41h76BUnjC8cBieiF4wZXsHuFwDtcuSzAndctwMJGDW2iIVUwnDaZqqWLJuDj401bn3Dk9F9fNQefubwNURByfX6m7qLwwvFDInrhuEFbq6HW+F+XzcF1a1uhvaeK+Wn7tnTIRD9SHu9fNxsrZ5dw3bd3Yld1ChycMKORiF6YZNRAhU0pCPHlq2fhN89tQkhVNppq4sNp+4IE5KlDlUBQMErjkuWtePD6ZXjVidEQ9wRBmGxE6IVJhhqggLLW+Le3deL1a1o5A88drS+urJlucIbJcJrJKMNmanMaQnzj107Aq5ZU5M9NOG7IO0+YVDxCGOfwhxc247XLmtmHxrpid5RWwgBfeetcdJbSKXA0wkxEhF6YBCj3bjhfo22Cd6+bhz94ZQftY0LpEFFQ7HJEKh3taAjxxXeeiAaV9c9KT5UwmYjQCxOPNzA+IY9IvG9dJz53eQUBqTzZjymqqil2TQCnpbTBRSc24PvvXYTmSA878UoQJgoRemHC8VQP7wOcN0/jU5e0IkaUW4bNLBMwqsA8Z2ET/vnquZnbpSBMEiL0wsSjKW1Tx1++cTFaSiEiE8BwhcrM6iDlwhsd4rKVzbhiRRnWaXifefoIwkQiQi9MOMrV8c4zO3H2XM2DPmYyirejLT5x2QloCVJOZ/mCb0YLxx8RemHCWdYa4c9f1wHHIwDtDH7CqezSw6kAK2Zr/OGFs2BcCqunb++AMD0QoRcmBhq55xUaNfD1dy/FvKYAJRMdl3QNNWc5b+Fcmn3Mb9bWYS3ZMCSTchxKZSMNqZmKhqX89vkdWD47grJpVobjpRxHmBjEAkGYEGgkiPGWxeyU2cc7nqBhJR43P53g51sOpUmuOlnhnPkBH+tkN67S6qasgT9/7Wy89d93cUctDzw/bPqVIBw7EtELE4TnNMVvr2057t6T9Pg0jepXOxI8tj8duN2/Iwuf3XEIoylXb3yK165qxcsW6GzZ0W+OJgjjjAi9MH5w6kHxjZwpL1/VirmNmq2Gx1PASLSpZDN1jtMxqbPorifYW02ylIyjdMxg8XaIvcETu92QFMmmXRZe2SHxM/1+3dZRT2vY1l1DNUn4cVKbIqXJV2RL7I/9wqCVgQkqKGmFv3r9QrY7Vl6zZbMgjDci9MK4wfqZi2DqA3zo/DakPH5vfHPgVI6Y0sXE1RB74Eeb6/jALTV8/K4YWw7U2b9eDYrSSTo37I3RnQ4V0ee6gW29DtoPtiZQoGTOI7s8PvLjBNffWsW92+qgMbXGxUiVGZc/msEXovMWhrhs1SzuK6DxiIIw3ojQC+OGoswzC6HH2oURzl1YRpinTsYTzmMrj1QH+PS9VfzLQ1VUE4+d3XV8+LY67n6mjpTTNZmgUpT+q+31QeMAMwKt8ODWGLFzsLxKyG43bfT4xN0parHDnj6Fz/6sFx+5tRu93OE7fkJMj0UrHacMfnddI1LnMQ6LBUE4DBF6YdygKNrprP3nihVNMNqw8I93pY3PB4dTqF4OQzgTwrOPvYLWCv/wiwRP7emDcj3ocsC9O4AHdzioF5V2auVw5zMxbntW4YUeC7gE9zxXxY3rY5R1yn279DvelLhKJjL9A1COPb2iBuXjaS/j3CXNaG8Mh6xEBGG8kKobYRzRsD7lfPOVqxon7InlC0peK3NSi8M9eaUKDxD3DjTn6dP3xpjTEuHZvQdRTRxbBtN818GRDSV4tndrfP6hGiIFLJ0dYMfBBIExvAdA9e3k0RM74NzFJQTOQ2nP2xDjWRlDiwSqwKGB6F971IrYC+OORPTCSzO4vtspGMoteM3qpLhWPt/gZHnyKEPjpI4KTp4XTlgFicqz8DTRac3cCKGL+RhoQlWqAs5176krPLm7hj465kBDGQ3tXiSgtAFqApQ1D6/Fc3ur6PXZ/NeE/Hhcyhu5ERKsWxzCqbw6ZpzzK57TXQ5vOrVlYNXBtf/5CEJ6nsnD37tDlwBLr4GUYQpHiAi9cARkgmOQIkaQpTMUTU0KkDoNZzW8dXBWsThevqyEKBesiRB7z1U9WdPR0naDIAi4ESkvpOTDpSwL5b7po+eO3EzMB0NRPlso58NOnI649j8rDXX8494EaG8uYWFDNjUKfBv/c6JjeNXSBjSEngWdL1yJAxLHol6h1JR20M7BW48SUig3k7uMhaNBUjfCEZMiQOgTrOwMcd4JjTh1boSTOkqYU1ZoaiyhTP7y3qO1rDlXP97VKcNdNEiYF7Y4bN6v2DxtXNMeFElDo9nUcKBexqySZ42nC814aj3dF62UmkODRz60gmo8uYSzJ/HY1evwzL4qNu1xeHxnL+7fmqK3GsPqCm/ejndFk1BMROiFw6F6cepsJdPJlMZ1G8wt1fD2M2bh3ee245Q5FYTKc6RJee+AouC84YdMyzxFmvS1cRgLGAOo12P4IEJrkNXPZ2kbDZN249bNGpv2GkQmr1gZRwGmi4zWHk90lfA/bt+HP72kHW1lDdr65dNFij11oNFomMBwnn9sD8TLC16VzG808DroPwCs6lS4YHETrPIIPFBLU9z4eB1/f88LeGpnAmiLxAe8sQxezYTcBQwteX7hEMpLPdeUoXLDhosA3Hm8j0eTFwxVyliPRe0l/N66Rrz9rNloLRmEJCbaHFaqOFF4W8enHvDYsKOKOU0Blrc7rOoIsLozwH3Pa/zb+u5J8c+hlcrKWQrXnRng8f0hNu6JsXk/sK83xWXLDd5zWsANUBP2PAz6O0097UmEeHhnFf9w7wF8e303Elo/OSpvTZHq8an1P1aqN6yWTYQpggj9FGKqCL31BmsXlPCh8xpx5SltCLlaxeWlksg2CCdJ6Nfv6MOf/KQOoxSnUehhnQkQxFXUA6DMl55JeA/TSiWN4bXhFUyWRs/klJ6Jv7s0wqLWhok/Dhb6lCuAEt43cdi8L8Gf/HAnvv9Uyt8DRfdTwA5ahH7qIJuxMxifV9NoLiTRbP5V0gH+8tJ2/Ph9i3D16bNRNhoBDQ7RYVaiOMlvmf/3aAIaLuu57t1yoxR1qNogQIWc3Y9gQ5L7ZH1eqZNXsLj+6hlukhpdj7xLuXKHjoO6fT144C1fAOmp++r6GJMVNBkEsCZEoAN4HWF5RwVf+bUluPX9C3DRiRV4H3KFFOj5kkbbGQ9E6Gc2Oo/OU8rHK4slLRXc8f5OXH/eLERGZ+WTKtt45F6h/Hcm03jrqpOpfLIGaD0o55/Vw1uSbj36W5hSUZo3bhMaUY7QW/5IlTXZBWR0gVZ5o5ThGbeKLzhc5qkChDC4clV5HM72yODXo/+jymbSBnBYu7AB//HuBfjoqzt5IDlSqiSa2YNehAzZjJ3B0GQj2nSNtMXCssYt7+vEgoYKHOdHAGP0cTdIP38BsG11iG9uGvs+K3XSUqVieznE2R0Os5oq6Kql+M/dGrt6LDdBjXXjOE1TfPDlTVjdenxLHa0OELgqlAnxJxc2QutZ+PTtPfCuB6mOjuuxCccfEfqZDOXelcG6+RpfeNeJWNRgeI1HkTyHiiTy41zJcrR4HeItp0TYdKAXj2ynCN5wSmK0g6LCk4BcJ2Fw+jyPN55cwqlzA053GDZMUFwd9MR+h3uf68MdzyrEieUIeNQSTU+rnRixCnHVMo0LT1DwunRc25cCqpRSZV650OrjI69sx5xSiD/+sYKtVfN+gYBXIsLMQ4R+BkN5+ZfND3DTb8xHc1n192EOaghSx735UvNEphQfOa+Ezz1Uw0+2Ohbi0dJHJGgtTQa/e26AMzqzYeQeZmD71HCTksKqNoVTWiO8cSXwF/cqbD3gOb39UljUEfgSLloa4L1nG26k8pO4QT38CR/qWyCrYzqm96+tYFG7xju/9gLbOFCKSmR+ZiI5+hnM4laNr79rDhoiw6V5UxKfRfVhoNEQ0Qok4BGFo9EcKnzyVQFO78zGF47k806XjUSX0V4J8IkLAyxqHl0KjYrgdIqNL/RlG9SKVgdTTEIVYFWEy5c34C+v7OR9Cimwm7mI0M8wqMJEs3VBhL+5rBPzmhoQmRDGTJw3zdFClsGwMadWdF42Qkd21zbyq6nCj9AMRF433DxkE7x9VYB5jSUEOmtEMsPU/tNqgQzMqHw0MCGaSmV84Jwoc0vwmdnYcPQL5p7uGNu6+y2OHbyPs7m0x9magM6LXuMwdw+99owGXLikHU5RaqrE/vtT7bokTCwi9DMMXr6ndXzo/GZcvqp5Sp48JULIOdLRFCkuAY3xdJdDd6zgNJmWDX9BomEkJR+jXCrh4mUVvh/nj8xpst8bfkVHhJNnaZ4mpfXwSm+VQ+ANbNCAp/eTV2bKf0nWGU6h+Kk0DlAphEGEv76iBQ0qRDk5iIRz+aL0MwnJ0c8wqNDw8uVl/M+LWzJfd6UG6r+nSkTP+W7v8GyXxYPbHX7+gseWPX1UH8RDRIwOacf4sN/T3ByqcMEJCiXjuaIoKyEdfUe5/9wp+n/tEo3H9ldgXHXYUChwColxMNbj8w+luGuLwtq5CU6fYzC/JeRVxNRBwboYK+aW8EevaMbHf1ZCxXYhNSU2khBmBiL0M4U8j1xGjE9ecQKgg4GYbioNpKaLzj1bevH5X1r01BxbDDPkLMn/CDDSliJnfLTGOXNDLpkcKfJ/KejRzpgfIH2whigYQbA1pXa4oB6JBx7dmeDRnUDsLGaFffjoBRWs7pycLtnRoNc2Csr8vF7/qk58c+NWPLlbD1gTCTMDSd3MFJznUsp3ndGC1e2GbXH1OI7FG08O1Az60gDhUQsRuX7V0dFqeND2WKBLSFs5QFvkjrrTtYIYB5IyYhtO9lM2IoPPoRwofPUdc6ACIyI/wxChnyFQGkPZFO9eOwcKISJMvp3BkUK5+Zjy60fZ1ElpKUrrkLGXGmMDVH9+PbM2OLoFb01H0K42annmZOMHOpw9lrWHuPLkVoRkjCbMGEToZwjG17C4swHnLgiydIgG15ZPNUiQAu04187eXJyvV1zV4rzLPWuGJ1BAahS6q479bMYC/VpXPUGPb+TqndFQbOmseN4sVeknXK0zdUR08Gxaeu4oN/+OUyuwLsy6yjwmzaNHOH5Ijn6GQNHpO9dUpkVi9jVLyjh5dopf7qzgoW11PLWfxhUqLp+kC9RIskSiS6L2+C6HUzstgKP3eaF1DnXLIq2xHfNoUPtBaBzWzC/h1A6N0zobsHTW1PyzUipA2VlcurIB7Q0K+6tZc5wIffERoZ8hOBfg6jWNmbPBFKcUGixrMzipzeLtq5uxv+5x97MpvvBwHYYHjwzfGUtCH5gI92xN8eY12UAUNvJVoy9dHa8eEi7rvPs5z5UzfoRqHd9/UYHHm0+t4C0rQ0SGImfH+yCTYps8BsgKTukEgYpw1apmfOnhLmiXQB1likqYfkjqZobQVjFY2Vk5oq7S4w03/NDUJhOyPLVFCq9bFvDXMgfN4c8hZhuAGFt7HDbtqvOQPcsDzNMjOKOUh3fs64vxi609yJx+RhBsbqhyqFmNtfMjVELDabBsf4AsG6amY2RmwBnyxX7t4gZOObFzp0T0hUeEfoZwxlzDIjTWTcrjCUXvpUDjrFkxbyCPlGqgVipjqYw0xJfXp7AJ5c9t7rX/0sRKwbg6vvJIgpppoBmKIz5Xnu2JNSpRgKWt07N85dwFIe9BxGpqlIEKE4sIfZEZtNF29oISV5K4aRa9WWrqoQ1PZ7Fqfvml88nKocpWDgk27bf4mwdidMV1zr7wJq7PfQ18NtM2Ky71/FFbiy89Cty9JYWxMRIT8b7ACA/Ez+OlJ2meVZs/0RPzBEwQKzrKaIlMfjYS0RcdSc4VHZ9FoJS28TQKEMfXh+VoIYFPofGDjVV87VHyjlfw7H8zXHokH1SuDNv2/nxHik3fj/HGNR6XLy8h4kkdZmCilHIONefwzJ46vvZ4gvW7wQM7yGbBZNO/h4Vsjulnbn+6jtWzgfMWGl5phNMkbqIVUiXQOKE9QteehN8Xx3vugDCxiNAXmmzT0lqLJW06NxeYbmjc9XQVX3qcxDtm8XUIRj0PqwyMS3HAlvHVR+r4xqMJzloQYlmrQWPZoJYCW/fXsX5njB21CKXcnZk2Y5V/6Yshe9a7FGli8bcPxPjjVxicOX/iBoNPBHTxX9AS4JG9QMhGcTKJqsiI0BcZn40BpAi2paSzJfpxHiRyNFCqZfMBh8//SiH0fUjJ6Ixa+jkFpQ552AxzPlT7kg0RUUh9wCXjD2yz+Pk2C+1SWBVAs4VBxJO0bF6aSa6ZL1lWyZu7FAWH8FrzWML/9UCA/3upw9yG0X3ypwr0XmgqBdA+5mOWeL7YSI6+wPRrjoZBaIJM6KdZ7/s/PdQH5WI4FbJBWcCOlLnIq5EHo/jcs1JTv6wa/PVs7B6vDLznC4LxaTaZyecTrIa/w4EB43QZIUMwevhERdBxFV98eLp1mipOg/G+zTRc5wlHhwi9MKV57VIDRzNPB3m8+1zk6X+T1ezDj0IjBF8kisbRxm0Fl5wof0rC1EXenQXG546OVGJYT13mbTNFjcxG4lVLy1jSkiIxZXinMCtMse6EEq49zeCUjkFTk/pPdhxRXKkD9ggiW4bmSOGaVQqnzw/RYixfe2JVxrnzPDteTjfoImnZuEESN0VHcvSFJkttUIqB/Fucr4zYbDQV4eoQ5XHNmjL2Vi1Wz61gUUsTQtuHVJXxmiUan7qnhkf3Bihpi8SPr2iRwRlVT6amjLie4qMXG5w210BboG7asXV/ikdeqOKU+SUYznVH0+fN5IGumiXDI7ixGgMJ0wYR+hmA1hrPd7tpWS9NG55rF2S2wzyflXLsppFTJihFuP4VET52Rx8O9vlxX5/SJrb1Fm1hjN96eQmr55S47JJcNalKZ/ksg+XtDfy8eky3qhuFnd0pFI1sVIHU0hccEfpCk0+O0sCTu+r5Puz02nij7tRspF+Qe8z73EI44mi7sxSzCXPKM2Et59EZP/CfrDZnlJUMW/nmkj3g9pj/e3aLwXnzdFa/r0IE3GKVVfxQhyzvF0wDa4l+2MXSWWzZX+fZuPwGEaEvNJKjLzLqkK7/akedP043p0LyvVFcN6/z81HcEKVywd/ZZ7C3l2yYFefwB1BHl7bP7HwPvyDQZ1v31tHtS9BUY4+88qZf4FW2QTvdBnk8uSdGd93CUgPaNGuiE44eEfoZws93JLBJysMnpju+X8GVxmO74qx8UjkerjIYEl+tj1CBKSWT+7P3078CqrkAv3y+CufcEH/36cy9W6rZaoQ2Y53Mji06IvQzhN6axcZdKdICrNA1+dQoA2vrePoA5dF1VheOFE6HXBf/1pMDfP71ZbzvrBLWzFZ5Bc3QyJWqZgLv0Rk5XLAkwmdeV8IrTzAIbML5eZ0nc4xSuO95l7lhUk3/cTvzY8M6Wo3ESLzFfc/1QpOtsrWcoxeKjbzCMwTKL//oqV6csnAaVYaMgOd5twliU8az+w7AkH+NywoFrU3xisUGbzq1hNB5XHaSxiVLFf72AYv7ttaHbFHoIMCly4F3nx5Cc428xXVrS9hfS/HIbrDxGfnZ05Jhw27L1gh0IQnJ9ngaiqOBRepCOFvHHc/EsGypbPNFjMR8RUZe3RkCeTTe+EhvMWqm85Z9Et7ffFkJ53TWOW0TaotrTw/wwbVNKHk34GRgYHDuQnWY7XCa1rFuYcDfB5ulBWjSDh89v4KrVqjcvdLh1Sd4fPySCgxSXgb4MUyumgpwast7/OTpGnb0pDCObKvNtHRAEo4OiehnCirEpl29+OnTvbhgSRNvaHLC40hz2FMITslrGnAOLGkt46MXBPjFTgujIpzWGXCvgNYR+ouMrE9xxtzM12Xwfm1bSWPF7JDNkI0Kszv2nidcve/UBMtmlzC3QWNVO7KUkIqmqcQfgtJXn3ugmy+KLr/sF2HPQXhpJKKfIZDboo8CfPGhHsDHeTVKATbheI6swTnzNM6cYxCYLB8/9GcM2iOP+a1DZfrkOZTeqSMd8mfgkVIkH5Tx6oUKq9s8R/qmAJvYtBKiyVs/eaYHCcIpcEDCZCFCP0PgrUqX4uYNvXimi174JPd1n+5kb2HanCXBZ5sHStEMEnsyNiPXy9M7hkaup3eAfXSCQSJOz0ioLFsDOBXB6lIW8RZg3F7iLP7b93ei6ihZlUyBIxImC0ndzBBI4gKv0aM9PnnrHvzLNZ0wvjywOckNQ9NwCZ8ZWOqhEcuLz0NxFh7XnqnwjtPLA19uMOQAMDTK13keX+f3k302jVMbzlEtEldb/fO9u/HT5zWcjqHdyM6fQvGQiH6m4RS+tXE/PvuzOueu+xuoZkKelqpzmkI1cCNriOnWQHa0OJWZNW/fX8WnftINp7tgUgWvpRN2JiFCP0Po/7M2yiFWFfz3W3fi24/0wXmbTU3Nf2BgtmpBUYP+h/wCV7TzJZ99Kjf1uQ1Eklq891t70WUTwDXAG/ooi/mZhAj9TEEdsgXgubHa4sM3b8fePofEeViXFvaJ6O9mVSq38sxv/auYoq1mdP46Jw7c7fvP9+/G/Vt7s/JKlQI+4MEpwsxBhH4Gwl2iCtjtgN/65vNIUmrtdwN5eim3m95QJE9NZaGv4YEtdXzqzv1QIc25lXTNTEWEfoZB40e8ytr7KU17y3Mp3n/TVhysa07heOeyjwXPXReNrFrW82xcT8NlvMVNG2O8/WvP4aDX7Gfj5a99xiIv/QxDI68kyZf3gavh3zc5XPRPT+HBZ3tRy/P1EtVPLygnn9LmuqNUXB0fv3knfuNbW7E3znYjPFspY6CJTCpuZhYi9DMa8lg3aNQ1bNwX481f2Yknd/bCOVGB6Qbl5WnClkENH/1BFX/18AGoWgQoqZcXROhnNOQC6VWIxJJ3TBn7fYzLv7gb395wgC15Lc0U5aGzlufOSjpnipBXRqUcydO/UyRQ2NGd4NqbduNzD+5GZAOgUgOcdMAK0jA1o/GcnqEKHM3do94b7I1T/PrXt+HG5V34o4vasHZhBEfTm1JyezQzqu5+qkLlk46dNVNYFWBPr8L//NF2/NvDveji1ybzzecSyiJYNwjHjAi9cBjahLjt2Rpu+9dtOGduBb93QTuuOKURlXzwhnB8oYstGbdtOQj8y/178IWH9mOfNSzqkUuRaknCC0MRoRcGkc9YJSHxJBgl/GJXH379pjrmNwCXrWzBJcsacOGyEmY3hpmUkI+7OtSQJfJyjPhDz6TN3TRpQAhF51ZZbNhp8cON+/CDJ2t4aFsNdZWZttFYRac9YnLt9K4Qk8SE8UOEfgYzWJSHyAKt+hFkZmDIhHxnTeGrv9qFLz7cgsAAr+wMcOkagzPmN2BRewkdTRWUg8H+KRzh3m0AABfPSURBVH580waH3ZUe9I3B8//6vzw4qh3hWIatNxzpZ4/k/gb9e6QnVw3ztSFfz6Zl0TSouNaLLQcVHnwhxd1bqrj/qR4805XCRCGcszwARdMAlNycTvs8FSc2NsKLEKEXXpJ+iwC61XQDNKrw1uPOPQp33hFAuW6+GJS0RWj8IUMxr8Z1r9+/+LN+580XPc4hHXWHxNhnQwEPQw0zFHuE4/ZDHnP4+xsXnc+Pm59vp6BSnz2lJoJXCcoBkNgYEU2GkjSacISI0AsvSdYtm/0EpXOc0nDKI7Dgjz70CFzCY+mo5f5QpOuz6HJCGJQrGvFxBv/MCPYOfjihPIb7GwdUtpzKH1HxX6jTDpGtIla0/RogUJY/0rcLMTFMmHBE6AVmiOSNoB3cdJP/dFZq71nXfW7te/hG7WRFnKM9ztEex3jf31gfPq9w8hqJ1nmzk+cV1GEC7190VBLsC4OQOnphWKRuY/ohr5kwEhLRC8MyVRICI+W9J/uxX8zxPJbhHltNoddMmHqI0AuHM0hJlB9eQYZNb08AxzNCnUrR8eBjUcOpvoTywksgQi+MykhblpPBQOEMjk8YPeK5T/KxDBb3EctiBWEEROiFl0YNLyaTpnNqkh9vmMc+wi9P2rGIuAtHi2zGCoIgFBwRekEQhIIjqRvh2OGmKo1sUp3j0SYqH0ztc4sCpTWcy2rxDccX9B17qJN2JGhaEkIYno2VTcii/+vcBwZKs2uAs2pgVipVmis9xhzH4AS851lbCLVH4sjrXcHTzFWo0Y97yH2m2Xi/3IcG+UPofEe7P/9u+X41u0869quRPVZhfBChF44Z7YPcNtejvRJhZavDSbPLqBjPlrp9KbC9O8GmAw57ezwSpCz8xqsj0OKAhTLmy4PCrJLFaXNCLGyNUNLZqPO9vQ6P702wZX+KGt2vDgCb5FeDY8ArGO+Q+BCR70VqynAuhNEuv4AdGV6V+OdDmyAMAlQMUDZ+YDx3qoCeJAXPZyfxdw6aLA9e7OMjCGNEhF4YExSFWorOvWX7g6tPMvid89qwqjNCpBwSBFA+yb1yAKPpo8aWfX24fYvHzRu6ce9ON6xnDHfb+qzkRXmLOZHG+19WxmtWNGNFq4YyFLon/JvOaxiK4ZXG7u4EP32mhm88VsdPt3vw2oFtGwLq5T2i0+Qg22fHde58jc9eMZeM+KFdHbc8leCGn/Qi8ygYbSWSf/DAn17QjFcvVpjXrNFMlhHaACaEzqN7erRaqrCnN8Hju+q4f7vD7c/U8MR+y2Kv+mc/CsKY/15latCUoXLDhosA3DkdjjV1QMWnqJoK/vDcCP/tlS1s9mVsChUC1iVwPuKf1WydQOY4KayJoJzCzkTjrH/cjuFiehJoS1GtAs7sjHDj29rRHrjMgkFRIsfzfbPZGqdSNEj7E+XR5wM0QeP/3v8CPnm/RUDTsTSliMwRnZeHRuCyqVqfumQW3nNGOTsHWHTHCud8bicOOjV65iZPATnrce9/6cBJ7SUeFFJzEV310OB72SGUcdkKp44S2ws3pl2oqQZ8/v59+MSDKR/LMa9OjgPVG1bL1WmKIJuxwpigAXWxKuEPzjb48MvbAF/L7MAoFw+Fg0mEHT0p3/bVPRIfQJlS3oBVwx2P7x/BJphMImPOVV+61OCb17RiFjmoaQMyxww4jaOxL46xK06xv+5hyVxNeTaXbKRo2/Xhgy/vwP++uIKARmOp6IhPkVYhTik0ljXevOrQ79UQoTV0eN2KpqMevtKfgKH4vGzqaEQVFtEhzwITwnmF0McwLkWvaeHV0u+8cjb+6fIWNGj5MxWODUndCGPCaY3LFyl89II2pCqFtxVY1PGt9X34yqMxHtntkLgsNZHl7kOcNx+4clUj3rCyAV9Zf5AHavTH85pmoKrMrMv7ENefZfDHF7bDIOVRhiS5jx9UuPERi1uf6Ma23joSrzk101IKcPEJId5zThNesbAZiUmgnce7TmvAafOa8d5vbcULcZCbgY2WwiHrZYdPXzIbDZHJtn+9QoNJUfUNuP6cFN/aYEFLiNQHMMNZHQ+LR+g8nu4O8KEf7kZis/sljAYWNAc4vVPj0pNbsbI1Rl0FcLaOK1cYONeMD/ygG0pnG9GT1ZUsFAdJ3UwhplPqhvTyC69vx+uWVzgto5XBH922B198zMOomDdO/UDxisch30uFSlhCNe6FM5THz95/1tOgkxiht3jbqa34zCXNmfDT3qR1+NM79uPGxxI4F8Pq6EUtsxmUq798cYhPXjYLcyu8KICDwV3PVPHu7xzgfLcbLRp3Dmd1BvjeuxehbHtQ1SVs2pXglE6DwDukOsC7vrELd213cE5D62T4hfGg1M3Pru3ASbNCfs42763h/Bv3Icztngefg+JqIo3LT9T4i0vb0F6O+ELi6bm9tRs3bugBaNN7mkT4krqZOsiaUBgTJGCnzzGcMiHxqabANzbECFUVgUqRDh4GMiCuVGni4Gv7oShn7g6pdMiRtkaqKvjIKypIVAmRixG4FF94sA9fedyi5hziqBlGHfKDH6hMyW3cb96S4He/e5AvIpzDdwkuPinE2fMakKojWMBqg7esaYL2CaoowSYWf/DDA1wymqoQsQ/w9jUVWOt5I3rYgSZHC18Is3PRSPC95x3+8If7EHLaSXM66cPrSjDOSjQvjAkRemFMGGNQKQe0bcrTjw7U6qg5zVUwVI4Y+EMpEj9oDirpVF/QyDXjepCBi8vfjG9eDnQ0RqigC3VdxlPdwF/f34PEpYg0YJIqUv+iiwgPrc1kkvL1P9+RVd7Q55EKYV2A3z47gnYjDwzxeQReVh5vWMm7yQiR4pbNKdbvtrh1Uzffd+RTXsW0hxaJDrl8dGz4oeeQ+/3ThSR0KX68BXiuW8E7B68DLGgzOKElhPFHtqksCIMRoRfGBKUdFNWqcxmlQ1vZoD2IoXU2b3ZwOaPq7/zhm+LvUXWJH2LgYrn88tfPamXVTXSACCn+z90H0eUVV+7QBiXlcobdDOXH8FxtnxqFv/rJHiRwiDmtbXHxikbMq4ycn1cqa/J6w7IQnU0GVpe4ZPMLv+yBR4r/fmcf0jhrlqqECm87pZnTVfoohD57GtRhlsIUpXvV/33PC526S7B+Zx15DSkCYzCvKZS/WGFMyNtGGBveYXNXtrlJUS01R11/fgeMUyj7mNMcR4NRGh0lj/Pmm6xrNC1jbx34zlM2q4Q5yoN8oWZwxyaHgNI/0KggxqXLmkb+Bec5NfKes1uRwKDs63h0Z4IHd8QcaT9bU7h5Ux1Ocf8qfuPsBgS2F04f3XkeEdR7oEMk6eCzdrwZ6/1EjWcUiowIvTAmKJL97uPVQ01R0Pjg2QG+/tY5OGdBmathKGLPat11tiFLKZcRAmBKAZ21oJSXizsuRrxvSx/qlAdXY3ibKocfPVNFbEKuX6d0zzkLG9hRgYPwF0XiFGev7izh7AUlTs/QHsOX18fcBUvLlEjH+Or62sAcp9VtGm89pRnKplw9c6QNWaMeNpsuGO7IXdRayscHgi+cPbVUSm6EMSFCL4wNE+JL62vYXjWc+7aUbkCAly8x+O47ZuPvL2lDJ9W/+wBRkqLEzaQp/AiNP9Z7LJldGhAyqrjZuCfze+lvlDoaSMef2NWHUlSCc573A5bPMiP6LlPp5VWrGzgdFfsIIeq4ZVM3p2+IwKa4b1fCFg6UdopViI+cXwIMXdQsrBsfAU5MCeXkADrLEc7h1U2Wp3f1Op7rdmKIIIwJEXphTDh2KKvhyq/ux+MHDEfihkQpsbQ9izefVsED183F/35dO84+gQSRKmAiGDd85GuNxrySQ5qLOlkfbO0ee5RMOf3tNQOfxFA6q6HvLI8sk6Gv46oVEV9UAuPxb4/VsSctDXyfInznDf7jyWrW6KUUlrYovHyuz4zaxrLqGIaS7UNSmoMbLggPlV0qhZuftjhQz85LEI4WEXphbGiyHIiwozvGG27chi/9Zx1pmrLgkZZTMqchUnjnKuC713TgZ9fOxXvPjBBq2nQNYJwfkj3xzqAxyCJ4EtJAAz3xMcSv3mNfzcH6zC+G0kdhoLPHVJkZGnXS0gWAyiTPXdSIZa2ZoKdxgj+7j2r6awN3pzVtOtdx02N1rr4puToO6Ea85wxqFDNDKohGhjoObObiSYZuTsFRHj4Bp7VObFC47qx23HttG95yahOnnygBtrs3xUdv24VAq8EVqYJwxEhnrDAmVF6/TqmYPhfg4z8+iH/5pcLlJzfijStKOG1OwDXpjk3NLE5oUfiLV7fgujOa8Wc/24MfPRVyg5TPY41AKTiqre+3CaaOUzf2jcf+xijPlsk+70bKvqfyshc2VPYWiarg2tMM182HKsEPnk6xt7eW2QgPNH1l1T6P7Kxi4+5WrJ6jUEkSXHJyA2bfdQD7ayGUfunjpYXAotYA//7WDt7DKEUBGhVdED06GiK0l8l5M+Gu2USFUGmKJLV43/cOYF8SZHbP6sU1O4IwOhLRC8cMecVb4/HcwQT/56E6rvjydlzz9Z14dLdFo6qyj0vqFSJXw4r2FF+9qgXXLIuQBodqwikPHdvc4ozz0inK4dhrxmmzuDGgSMbxm1yzEdvQVBCVglLXabPrxSXLGvg8iB88lbAVgx3UYEWbpJYMz4zG956M2ZjNaY9G7XDpiSX4I9iMDVwNswKPSxYBFy5pwLp5EU5d1IglnWU0VzxS7VGzGi5sQGSrqCqFd3y3G7/YLrXzwrEhQi8cM0keNVtlEPkaUhPi7h0Kr/3KHrz9poO46+mDHBjXDNWmV9CHEj52aQsWUO6E6umdYcveg1WX2bEjC1rnN4fZruowVTKj4i06KhF86Nn3hn57X5/No2Gdb8o6pB749TNnoVKi1EzKDUv3PNeb2Rvktf6eZV6zPQF95fbNvfw92k+gTePLVjQckYuwVRG6dCO80Xy+tALQaYzQKVBxT8lbGO/x7K6D+IdfJrj4X3fjF9v64MN4kDWaRPPC0SOpG+GYUf01gP2pEpUJLX3p1ucNbnuuhosXJviHq2ehPawBPsKCsIbfWteKT919AFY7dnbcsD9GhEZ48pA3EU6dk5U9Zt70R+kYqSKcsSBAmoTQJuUy0M177UDTEvveaIPZOsbvv3IuryjoO729VXzgZW0IfB8L86ELzCGBJZGuWvK50byJe8nyJswpHcSeeJRjgsPB3iq+9FAdWYNrlg7qi2Psrjps7VJ4dl8de6opvDFZU5k2/VsKgjBmROiFiSEvC+R0iFK4e1cdf3JbNz57ZRMiZVFVDbhseQ1/9lPDnbXKG/xqR503NhVHygFetSjhKNp6e1g36Wh4ZdnR0psYaVqGVjEe2p6wOPdbMpBgv2FFG1oj2iDNRLetMcJ151AjWMSdun6I8Vi/VQHtk6bIqucjBMribadE+MeHR1P6AF19Xfi7X3bDanXI48Z7aG24RJUulLzxy41oR319E4RhkdSNMGGwy6KijVbaYAzxvSd70ZtknjQ0yGNek0EQ6AGzs529Bo++0JdVtXuL9oYAl59Uyu0SRoejdE6DeHREGq9bWYF2ZRhknbo/3Nyb5dJVtjnrrMY7Ts2z+DSCECn/RdCFKKABJ9ohIn8bumm6uewGj5JRnIIhd0kqoX/7mmYgNbyBrEZI12c7EBEV2eRRuuLSTLCHf1afr2kTWvu8d0BUXhgfJKIXJhyK62mKUk1H6Ek0Go2HMpTiSVjwqaIlhUGgHb7zRIJT5xoYAyQO+M0zNW7enEXko213ZsKYwAYN+LXTDCrGsXUxVbA8tr0H23vVkNCmo1HhrAUmm4zlHR58oYZ/erAPdVV6qYdhkQ6Q4gPntbClMWV9Tu1QOK3TYP1+w52tEKsCYQohQi9MOCTm0CWUEaMpdDyDldIV1lG6gswPYh6+QZH+Nx6v4g/Ob0HJ0dcMzlncjKuXH8B/PKUOedCPAFXCQEdYWq7it152Arc50WSrwCf41/+MD1sVXLos5KobauKi+vZvbQC++yxtDFdHfUpoDyCwu/CPb1kAk1rEOsTvr4tw7Q/iLCUjwbgwhZDUjTAmjFc4oTFEiZIOZDHA1TGa/6145qrKm4LIziBCpC3etKoZzRTsqqxK58l9KRzPQw3z6haPvXWLv/zpAU6VOHKq9AqfuaIZb1hZAVIaaBKw3QCVbPJDcpmOZpGnz9fNreAb13Sg3SR8j+Qw+fPtffjWxjqUctngcbCVDt51CpVFhvx5ihDf29QDbWtD6luGu/G5uQQ3P53imX1ZtZF3FleuaMDyNko1jWyHLAjHAxF6YUwkXuHG11fw0G8uwt+9rgOvXFBCs7bc8cp+8S5F4CgjrXBCA/Dhsyv49GsbEJP9sKuxqN/0yMG8SWpoUuYLD3fhrx+MEXjKfzs0AvjcFS343q/NxbtWKHa55JJJp3kiVNl4nL9Q48tXd+D71wSY39KIlFNDGlv29OJ3bulji2PnU66FD12ME9tCrJ0fwfgEXmv89Lk+7KriiIZwOy7At0hMBd/d2Afvs03nVCu88+TyuBmcCcJ4IakbYUwsbnRYNrcMpR3etCbAO06fjZ4Y2NblsKvbw1F9eAAsbQ8xv4Wi8JS9cJy3XEf/fLfF/3vMIfQOVpshNTUpAnzm3h6UnccH1zWhFgQIrMNZC8o4d34Ff+48ntmbojdxvHG6uK2EtopGbB1S08jiH8HhyX0KV3ytC902haKoHxV+fGUMXr88glUhnEuhtcPtT9YQaI3YG66ieUlsDIQlNCYH8P3NJXzoFTRnNoGyBpet0vjEfSG0lnp3YeogQi+MibWLm7j6JPUeAU2VsuB0y5J2zbfAqbySJPsI/sh1iXh2n8Pv3fwCEq4s0YcVTtKXqK7+kw/0oM8rfGhdhT9XHDfTTFpg2ewAPt+ApTRQ6hIYHcDaGgJVwr3P1/Dbt3SjJ9VZBYvOBpDQRSBODC5dlq0kyHqBPHrueJY8bMCbsqNBFwpasfSZJmzcU8eurjrmNBoYHWNpexkr2gJs7or53BzfX/+QFXK5tLwSccaNzxhCQTgCJHUjjInvPd6Ft/5HL77xaB3bD8ZcSllSDmVH2e4arMnmr2rlsiYqKPznrgTX39KFi2/chl/tC7gbdDT+9r4urPviQfz7ozW8cNCi7GK+L4q6adQfOG2SIjAheusOtz3j8d7vHMTV3+zGzqqBMnaIhzt1nq7urGDN3BJqaYyDTuGmJxI820ebsgnvCRwNZKvwzQ01dDuDLhciThO88eQwK6bMN2XrViFOUlStQbdqRMgrBrE1ECYP5cc881IYbyo3bLgIwJ3T4YmlzVASWOvL7Oq4sAFYOaeChc1ARyXkLU7ybtnZ67HzYIqN+1I83wME2sPS72oLOzBY7yXwmfEYN1LBY1GLwTlzNRa2RjzViu5rb1+KR/cAG/fE6LF0AchtC7zmoSMYlBpSLPZAnVM0/dF29nNO0cXHwR9N+MN3m7npkHkbVcRTU1bqXT7ORPPFhTZsFe1NsLlaxCsHW/DSnOoNq2XJMkWQ1I0wJjIfGIrYExa57XVg+5Z6LqUv7hD12XhAk/nYUGOQY3E9AuhnqUonF+rneyzn9ymTP+T+kTVVsU1y/lWl+keO+yE/mbJ3vh301f5Vx1GKPPqbZV026o9nmqgszTQg4o5TQnS83vT/ufnCi7wwtZDUjTDN8bnEH8HqQBBmKBLRC+PMZKUCDz3OIYEX9y9BGA4RemH8mCyNHfFxROQFYTgkdSMIglBwROgFQRAKjgi9IAhCwRGhFwRBKDgi9IIgCAVHhF4QBKHgiNALgiAUHBF6QRCEgiNCLwiCUHBE6AVBEAqOCL0gCELBEaEXBEEoOCL0giAIBUeEXhAEoeCI0AuCIBQcEXpBEISCI0IvCIJQcEToBUEQCo4IvSAIQsGRmbFTi2cB/NlMfxIEQRhflPeTNbVfEARBOB5I6kYQBKHgiNALgiAUHBF6QRCEgiNCLwiCUHBE6AVBEAqOCL0gCELBEaEXBEEoOCL0giAIBUeEXhAEoeCI0AuCIBQcEXpBEISCI0IvCIJQcEToBUEQCo4IvSAIQsERoRcEQSg4IvSCIAgFR4ReEASh4IjQC4IgFBwRekEQhIIjQi8IglBwROgFQRAKjgi9IAhCkQHw/wHpgSf1xFthAgAAAABJRU5ErkJggg==;" vertex="1" parent="1">
          <mxGeometry x="199" y="170" width="76" height="54" as="geometry" />
        </mxCell>
        <mxCell id="TncjpCpAyy_2TeYXYjgw-20" style="edgeStyle=orthogonalEdgeStyle;rounded=0;orthogonalLoop=1;jettySize=auto;html=1;entryX=-0.033;entryY=0.344;entryDx=0;entryDy=0;entryPerimeter=0;fillColor=#1ba1e2;strokeColor=#006EAF;strokeWidth=2;" edge="1" parent="1" source="TncjpCpAyy_2TeYXYjgw-7" target="TncjpCpAyy_2TeYXYjgw-1">
          <mxGeometry relative="1" as="geometry" />
        </mxCell>
        <mxCell id="TncjpCpAyy_2TeYXYjgw-7" value="Metadata Protocol" style="image;aspect=fixed;perimeter=ellipsePerimeter;html=1;align=center;shadow=0;dashed=0;spacingTop=3;image=img/lib/active_directory/data_jack.svg;" vertex="1" parent="1">
          <mxGeometry x="217.75" y="270" width="38.5" height="70" as="geometry" />
        </mxCell>
        <mxCell id="TncjpCpAyy_2TeYXYjgw-21" style="edgeStyle=orthogonalEdgeStyle;rounded=0;orthogonalLoop=1;jettySize=auto;html=1;entryX=0.008;entryY=0.482;entryDx=0;entryDy=0;entryPerimeter=0;fillColor=#1ba1e2;strokeColor=#006EAF;strokeWidth=2;" edge="1" parent="1" source="TncjpCpAyy_2TeYXYjgw-8" target="TncjpCpAyy_2TeYXYjgw-1">
          <mxGeometry relative="1" as="geometry" />
        </mxCell>
        <mxCell id="TncjpCpAyy_2TeYXYjgw-8" value="Download &lt;br&gt;Signed Document" style="shadow=0;dashed=0;html=1;strokeColor=none;fillColor=#4495D1;labelPosition=center;verticalLabelPosition=bottom;verticalAlign=top;align=center;outlineConnect=0;shape=mxgraph.veeam.2d.download;" vertex="1" parent="1">
          <mxGeometry x="214.6" y="380" width="44.8" height="44.8" as="geometry" />
        </mxCell>
        <mxCell id="TncjpCpAyy_2TeYXYjgw-22" style="edgeStyle=orthogonalEdgeStyle;rounded=0;orthogonalLoop=1;jettySize=auto;html=1;entryX=-0.008;entryY=0.627;entryDx=0;entryDy=0;entryPerimeter=0;strokeWidth=2;fillColor=#1ba1e2;strokeColor=#006EAF;" edge="1" parent="1" source="TncjpCpAyy_2TeYXYjgw-13" target="TncjpCpAyy_2TeYXYjgw-1">
          <mxGeometry relative="1" as="geometry" />
        </mxCell>
        <mxCell id="TncjpCpAyy_2TeYXYjgw-13" value="Monitoring&amp;nbsp;&lt;br&gt;Infrastructure" style="image;aspect=fixed;html=1;points=[];align=center;fontSize=12;image=img/lib/azure2/other/Azure_Monitor_Dashboard.svg;" vertex="1" parent="1">
          <mxGeometry x="210.1" y="480" width="53.8" height="50" as="geometry" />
        </mxCell>
        <mxCell id="TncjpCpAyy_2TeYXYjgw-23" style="edgeStyle=orthogonalEdgeStyle;rounded=0;orthogonalLoop=1;jettySize=auto;html=1;entryX=-0.017;entryY=0.768;entryDx=0;entryDy=0;entryPerimeter=0;strokeWidth=2;fillColor=#1ba1e2;strokeColor=#006EAF;" edge="1" parent="1" source="TncjpCpAyy_2TeYXYjgw-14" target="TncjpCpAyy_2TeYXYjgw-1">
          <mxGeometry relative="1" as="geometry" />
        </mxCell>
        <mxCell id="TncjpCpAyy_2TeYXYjgw-14" value="Monitoring&lt;br&gt;Protocol" style="image;aspect=fixed;html=1;points=[];align=center;fontSize=12;image=img/lib/azure2/other/Azure_Monitor_Dashboard.svg;" vertex="1" parent="1">
          <mxGeometry x="210.1" y="580" width="53.8" height="50" as="geometry" />
        </mxCell>
        <mxCell id="TncjpCpAyy_2TeYXYjgw-24" style="edgeStyle=orthogonalEdgeStyle;rounded=0;orthogonalLoop=1;jettySize=auto;html=1;entryX=0.017;entryY=0.918;entryDx=0;entryDy=0;entryPerimeter=0;strokeWidth=2;fillColor=#1ba1e2;strokeColor=#006EAF;" edge="1" parent="1" source="TncjpCpAyy_2TeYXYjgw-15" target="TncjpCpAyy_2TeYXYjgw-1">
          <mxGeometry relative="1" as="geometry" />
        </mxCell>
        <mxCell id="TncjpCpAyy_2TeYXYjgw-15" value="Management&amp;nbsp;APIs" style="fillColor=#28A8E0;verticalLabelPosition=bottom;sketch=0;html=1;strokeColor=#ffffff;verticalAlign=top;align=center;points=[[0.145,0.145,0],[0.5,0,0],[0.855,0.145,0],[1,0.5,0],[0.855,0.855,0],[0.5,1,0],[0.145,0.855,0],[0,0.5,0]];pointerEvents=1;shape=mxgraph.cisco_safe.compositeIcon;bgIcon=ellipse;resIcon=mxgraph.cisco_safe.capability.vulnerability_management;" vertex="1" parent="1">
          <mxGeometry x="216.4" y="690" width="43" height="43" as="geometry" />
        </mxCell>
        <mxCell id="TncjpCpAyy_2TeYXYjgw-17" style="edgeStyle=orthogonalEdgeStyle;rounded=0;orthogonalLoop=1;jettySize=auto;html=1;entryX=0;entryY=0.5;entryDx=0;entryDy=0;entryPerimeter=0;fillColor=#1ba1e2;strokeColor=#006EAF;strokeWidth=2;" edge="1" parent="1" source="TncjpCpAyy_2TeYXYjgw-16" target="TncjpCpAyy_2TeYXYjgw-15">
          <mxGeometry relative="1" as="geometry" />
        </mxCell>
        <mxCell id="TncjpCpAyy_2TeYXYjgw-16" value="Management UI" style="sketch=0;html=1;aspect=fixed;strokeColor=none;shadow=0;fillColor=#3B8DF1;verticalAlign=top;labelPosition=center;verticalLabelPosition=bottom;shape=mxgraph.gcp2.connected" vertex="1" parent="1">
          <mxGeometry x="20" y="687" width="69.44" height="50" as="geometry" />
        </mxCell>
        <mxCell id="TncjpCpAyy_2TeYXYjgw-25" value="Time Stamping &lt;br&gt;Server" style="sketch=0;pointerEvents=1;shadow=0;dashed=0;html=1;strokeColor=none;fillColor=#005F4B;labelPosition=center;verticalLabelPosition=bottom;verticalAlign=top;align=center;outlineConnect=0;shape=mxgraph.veeam2.time_clocks;aspect=fixed;" vertex="1" parent="1">
          <mxGeometry x="650" y="640" width="74" height="74" as="geometry" />
        </mxCell>
        <mxCell id="TncjpCpAyy_2TeYXYjgw-27" value="Certification &lt;br&gt;authority" style="sketch=0;outlineConnect=0;fontColor=#000000;fillColor=#005200;strokeColor=#005700;dashed=0;verticalLabelPosition=bottom;verticalAlign=top;align=center;html=1;fontSize=12;fontStyle=0;aspect=fixed;pointerEvents=1;shape=mxgraph.aws4.certificate_manager;" vertex="1" parent="1">
          <mxGeometry x="657.5" y="480" width="59" height="78" as="geometry" />
        </mxCell>
        <mxCell id="TncjpCpAyy_2TeYXYjgw-32" value="" style="group" vertex="1" connectable="0" parent="1">
          <mxGeometry x="642" y="70" width="90" height="80" as="geometry" />
        </mxCell>
        <mxCell id="TncjpCpAyy_2TeYXYjgw-28" value="" style="rounded=1;whiteSpace=wrap;html=1;fillColor=#008a00;fontColor=#ffffff;strokeColor=#005700;" vertex="1" parent="TncjpCpAyy_2TeYXYjgw-32">
          <mxGeometry width="90" height="80" as="geometry" />
        </mxCell>
        <mxCell id="TncjpCpAyy_2TeYXYjgw-29" value="Security Server" style="image;points=[];aspect=fixed;html=1;align=center;shadow=0;dashed=0;image=img/lib/allied_telesis/buildings/Secure_Building.svg;" vertex="1" parent="TncjpCpAyy_2TeYXYjgw-32">
          <mxGeometry y="20" width="87.74" height="60" as="geometry" />
        </mxCell>
        <mxCell id="TncjpCpAyy_2TeYXYjgw-33" value="Central Server" style="verticalLabelPosition=bottom;sketch=0;html=1;fillColor=#6ABD46;strokeColor=#ffffff;verticalAlign=top;align=center;points=[[0.085,0.085,0],[0.915,0.085,0],[0.915,0.915,0],[0.085,0.915,0],[0.25,0,0],[0.5,0,0],[0.75,0,0],[1,0.25,0],[1,0.5,0],[1,0.75,0],[0.75,1,0],[0.5,1,0],[0.25,1,0],[0,0.75,0],[0,0.5,0],[0,0.25,0]];pointerEvents=1;shape=mxgraph.cisco_safe.compositeIcon;bgIcon=mxgraph.cisco_safe.architecture.generic_appliance;resIcon=mxgraph.cisco_safe.architecture.secure_server;" vertex="1" parent="1">
          <mxGeometry x="642" y="192" width="90" height="90" as="geometry" />
        </mxCell>
        <mxCell id="TncjpCpAyy_2TeYXYjgw-54" style="edgeStyle=orthogonalEdgeStyle;rounded=0;orthogonalLoop=1;jettySize=auto;html=1;entryX=0.464;entryY=1.071;entryDx=0;entryDy=0;entryPerimeter=0;fillColor=#1ba1e2;strokeColor=#006EAF;strokeWidth=2;endArrow=none;endFill=0;" edge="1" parent="1" source="TncjpCpAyy_2TeYXYjgw-34" target="TncjpCpAyy_2TeYXYjgw-38">
          <mxGeometry relative="1" as="geometry" />
        </mxCell>
        <mxCell id="TncjpCpAyy_2TeYXYjgw-34" value="Proxy Configuration" style="verticalLabelPosition=bottom;sketch=0;aspect=fixed;html=1;verticalAlign=top;strokeColor=none;align=center;outlineConnect=0;shape=mxgraph.citrix.proxy_server;" vertex="1" parent="1">
          <mxGeometry x="512.75" y="350" width="76.5" height="90" as="geometry" />
        </mxCell>
        <mxCell id="TncjpCpAyy_2TeYXYjgw-43" style="edgeStyle=orthogonalEdgeStyle;rounded=0;orthogonalLoop=1;jettySize=auto;html=1;entryX=1;entryY=0.051;entryDx=0;entryDy=0;entryPerimeter=0;endArrow=none;endFill=0;startArrow=classic;startFill=1;dashed=1;fillColor=#1ba1e2;strokeColor=#006EAF;strokeWidth=2;" edge="1" parent="1" source="TncjpCpAyy_2TeYXYjgw-35" target="TncjpCpAyy_2TeYXYjgw-1">
          <mxGeometry relative="1" as="geometry" />
        </mxCell>
        <mxCell id="TncjpCpAyy_2TeYXYjgw-35" value="" style="image;sketch=0;aspect=fixed;html=1;points=[];align=center;fontSize=12;image=img/lib/mscae/Connections.svg;" vertex="1" parent="1">
          <mxGeometry x="538" y="82" width="28" height="28" as="geometry" />
        </mxCell>
        <mxCell id="TncjpCpAyy_2TeYXYjgw-44" style="edgeStyle=orthogonalEdgeStyle;rounded=0;orthogonalLoop=1;jettySize=auto;html=1;entryX=0.983;entryY=0.118;entryDx=0;entryDy=0;entryPerimeter=0;fillColor=#1ba1e2;strokeColor=#006EAF;strokeWidth=2;" edge="1" parent="1" source="TncjpCpAyy_2TeYXYjgw-36" target="TncjpCpAyy_2TeYXYjgw-1">
          <mxGeometry relative="1" as="geometry" />
        </mxCell>
        <mxCell id="TncjpCpAyy_2TeYXYjgw-36" value="" style="image;sketch=0;aspect=fixed;html=1;points=[];align=center;fontSize=12;image=img/lib/mscae/Connections.svg;" vertex="1" parent="1">
          <mxGeometry x="538" y="130" width="28" height="28" as="geometry" />
        </mxCell>
        <mxCell id="TncjpCpAyy_2TeYXYjgw-47" style="edgeStyle=orthogonalEdgeStyle;rounded=0;orthogonalLoop=1;jettySize=auto;html=1;entryX=0.983;entryY=0.217;entryDx=0;entryDy=0;entryPerimeter=0;fillColor=#1ba1e2;strokeColor=#006EAF;strokeWidth=2;dashed=1;startArrow=classic;startFill=1;endArrow=none;endFill=0;" edge="1" parent="1" source="TncjpCpAyy_2TeYXYjgw-37" target="TncjpCpAyy_2TeYXYjgw-1">
          <mxGeometry relative="1" as="geometry" />
        </mxCell>
        <mxCell id="TncjpCpAyy_2TeYXYjgw-52" style="edgeStyle=orthogonalEdgeStyle;rounded=0;orthogonalLoop=1;jettySize=auto;html=1;entryX=0;entryY=0.25;entryDx=0;entryDy=0;entryPerimeter=0;strokeWidth=2;fillColor=#1ba1e2;strokeColor=#006EAF;" edge="1" parent="1" source="TncjpCpAyy_2TeYXYjgw-37" target="TncjpCpAyy_2TeYXYjgw-33">
          <mxGeometry relative="1" as="geometry" />
        </mxCell>
        <mxCell id="TncjpCpAyy_2TeYXYjgw-37" value="" style="image;sketch=0;aspect=fixed;html=1;points=[];align=center;fontSize=12;image=img/lib/mscae/Connections.svg;" vertex="1" parent="1">
          <mxGeometry x="538" y="200" width="28" height="28" as="geometry" />
        </mxCell>
        <mxCell id="TncjpCpAyy_2TeYXYjgw-46" style="edgeStyle=orthogonalEdgeStyle;rounded=0;orthogonalLoop=1;jettySize=auto;html=1;entryX=0.983;entryY=0.293;entryDx=0;entryDy=0;entryPerimeter=0;strokeWidth=2;fillColor=#1ba1e2;strokeColor=#006EAF;dashed=1;endArrow=none;endFill=0;startArrow=classic;startFill=1;" edge="1" parent="1" source="TncjpCpAyy_2TeYXYjgw-38" target="TncjpCpAyy_2TeYXYjgw-1">
          <mxGeometry relative="1" as="geometry" />
        </mxCell>
        <mxCell id="TncjpCpAyy_2TeYXYjgw-53" style="edgeStyle=orthogonalEdgeStyle;rounded=0;orthogonalLoop=1;jettySize=auto;html=1;entryX=0.033;entryY=0.844;entryDx=0;entryDy=0;entryPerimeter=0;strokeWidth=2;fillColor=#1ba1e2;strokeColor=#006EAF;" edge="1" parent="1" source="TncjpCpAyy_2TeYXYjgw-38" target="TncjpCpAyy_2TeYXYjgw-33">
          <mxGeometry relative="1" as="geometry" />
        </mxCell>
        <mxCell id="TncjpCpAyy_2TeYXYjgw-38" value="" style="image;sketch=0;aspect=fixed;html=1;points=[];align=center;fontSize=12;image=img/lib/mscae/Connections.svg;" vertex="1" parent="1">
          <mxGeometry x="538" y="254" width="28" height="28" as="geometry" />
        </mxCell>
        <mxCell id="TncjpCpAyy_2TeYXYjgw-49" style="edgeStyle=orthogonalEdgeStyle;rounded=0;orthogonalLoop=1;jettySize=auto;html=1;entryX=0.983;entryY=0.646;entryDx=0;entryDy=0;entryPerimeter=0;startArrow=classic;startFill=1;endArrow=none;endFill=0;dashed=1;fillColor=#1ba1e2;strokeColor=#006EAF;strokeWidth=2;" edge="1" parent="1" source="TncjpCpAyy_2TeYXYjgw-39" target="TncjpCpAyy_2TeYXYjgw-1">
          <mxGeometry relative="1" as="geometry" />
        </mxCell>
        <mxCell id="TncjpCpAyy_2TeYXYjgw-56" style="edgeStyle=orthogonalEdgeStyle;rounded=0;orthogonalLoop=1;jettySize=auto;html=1;strokeWidth=2;fillColor=#1ba1e2;strokeColor=#006EAF;endArrow=none;endFill=0;" edge="1" parent="1" source="TncjpCpAyy_2TeYXYjgw-39" target="TncjpCpAyy_2TeYXYjgw-27">
          <mxGeometry relative="1" as="geometry" />
        </mxCell>
        <mxCell id="TncjpCpAyy_2TeYXYjgw-39" value="" style="image;sketch=0;aspect=fixed;html=1;points=[];align=center;fontSize=12;image=img/lib/mscae/Connections.svg;" vertex="1" parent="1">
          <mxGeometry x="538" y="505" width="28" height="28" as="geometry" />
        </mxCell>
        <mxCell id="TncjpCpAyy_2TeYXYjgw-51" style="edgeStyle=orthogonalEdgeStyle;rounded=0;orthogonalLoop=1;jettySize=auto;html=1;entryX=1;entryY=0.869;entryDx=0;entryDy=0;entryPerimeter=0;startArrow=classic;startFill=1;endArrow=none;endFill=0;strokeWidth=2;fillColor=#1ba1e2;strokeColor=#006EAF;dashed=1;" edge="1" parent="1" source="TncjpCpAyy_2TeYXYjgw-40" target="TncjpCpAyy_2TeYXYjgw-1">
          <mxGeometry relative="1" as="geometry" />
        </mxCell>
        <mxCell id="TncjpCpAyy_2TeYXYjgw-57" style="edgeStyle=orthogonalEdgeStyle;rounded=0;orthogonalLoop=1;jettySize=auto;html=1;strokeWidth=2;fillColor=#1ba1e2;strokeColor=#006EAF;endArrow=none;endFill=0;" edge="1" parent="1" source="TncjpCpAyy_2TeYXYjgw-40" target="TncjpCpAyy_2TeYXYjgw-25">
          <mxGeometry relative="1" as="geometry" />
        </mxCell>
        <mxCell id="TncjpCpAyy_2TeYXYjgw-40" value="" style="image;sketch=0;aspect=fixed;html=1;points=[];align=center;fontSize=12;image=img/lib/mscae/Connections.svg;" vertex="1" parent="1">
          <mxGeometry x="538" y="663" width="28" height="28" as="geometry" />
        </mxCell>
        <mxCell id="TncjpCpAyy_2TeYXYjgw-41" style="edgeStyle=orthogonalEdgeStyle;rounded=0;orthogonalLoop=1;jettySize=auto;html=1;entryX=0.964;entryY=0.5;entryDx=0;entryDy=0;entryPerimeter=0;endArrow=none;endFill=0;startArrow=classic;startFill=1;strokeWidth=2;fillColor=#1ba1e2;strokeColor=#006EAF;" edge="1" parent="1" source="TncjpCpAyy_2TeYXYjgw-28" target="TncjpCpAyy_2TeYXYjgw-35">
          <mxGeometry relative="1" as="geometry">
            <Array as="points">
              <mxPoint x="620" y="96" />
              <mxPoint x="620" y="96" />
            </Array>
          </mxGeometry>
        </mxCell>
        <mxCell id="TncjpCpAyy_2TeYXYjgw-42" style="edgeStyle=orthogonalEdgeStyle;rounded=0;orthogonalLoop=1;jettySize=auto;html=1;entryX=0.893;entryY=0.536;entryDx=0;entryDy=0;entryPerimeter=0;dashed=1;strokeWidth=2;fillColor=#1ba1e2;strokeColor=#006EAF;" edge="1" parent="1" source="TncjpCpAyy_2TeYXYjgw-29" target="TncjpCpAyy_2TeYXYjgw-36">
          <mxGeometry relative="1" as="geometry">
            <Array as="points">
              <mxPoint x="620" y="145" />
              <mxPoint x="620" y="145" />
            </Array>
          </mxGeometry>
        </mxCell>
      </root>
    </mxGraphModel>
  </diagram>
</mxfile>
